<svg width="27" height="27" viewBox="0 0 27 27" fill="none" xmlns="http://www.w3.org/2000/svg">
<mask id="mask0_235_25888" style="mask-type:alpha" maskUnits="userSpaceOnUse" x="0" y="0" width="27" height="27">
<rect width="26.6667" height="26.6667" fill="#D9D9D9"/>
</mask>
<g mask="url(#mask0_235_25888)">
<path d="M6.3886 18.0565V11.3899C6.3886 11.1537 6.46851 10.9558 6.62833 10.796C6.78814 10.6363 6.98611 10.5565 7.22222 10.5565C7.45851 10.5565 7.65648 10.6363 7.81611 10.796C7.97555 10.9558 8.05527 11.1537 8.05527 11.3899V18.0565C8.05527 18.2926 7.97536 18.4906 7.81555 18.6504C7.65573 18.81 7.45777 18.8899 7.22166 18.8899C6.98536 18.8899 6.78749 18.81 6.62805 18.6504C6.46842 18.4906 6.3886 18.2926 6.3886 18.0565ZM12.4997 18.0565V11.3899C12.4997 11.1537 12.5796 10.9558 12.7394 10.796C12.8993 10.6363 13.0972 10.5565 13.3333 10.5565C13.5696 10.5565 13.7675 10.6363 13.9269 10.796C14.0866 10.9558 14.1664 11.1537 14.1664 11.3899V18.0565C14.1664 18.2926 14.0865 18.4906 13.9267 18.6504C13.7668 18.81 13.5689 18.8899 13.3328 18.8899C13.0965 18.8899 12.8986 18.81 12.7392 18.6504C12.5795 18.4906 12.4997 18.2926 12.4997 18.0565ZM3.90999 22.7787C3.67388 22.7787 3.47601 22.6988 3.31638 22.539C3.15657 22.3792 3.07666 22.1812 3.07666 21.9451C3.07666 21.7088 3.15657 21.511 3.31638 21.3515C3.47601 21.1919 3.67388 21.1121 3.90999 21.1121H22.7561C22.9922 21.1121 23.1901 21.192 23.3497 21.3518C23.5095 21.5116 23.5894 21.7096 23.5894 21.9457C23.5894 22.182 23.5095 22.3799 23.3497 22.5393C23.1901 22.6989 22.9922 22.7787 22.7561 22.7787H3.90999ZM18.6108 18.0565V11.3899C18.6108 11.1537 18.6907 10.9558 18.8505 10.796C19.0104 10.6363 19.2083 10.5565 19.4444 10.5565C19.6807 10.5565 19.8786 10.6363 20.038 10.796C20.1977 10.9558 20.2775 11.1537 20.2775 11.3899V18.0565C20.2775 18.2926 20.1976 18.4906 20.0378 18.6504C19.878 18.81 19.68 18.8899 19.4439 18.8899C19.2076 18.8899 19.0096 18.81 18.85 18.6504C18.6905 18.4906 18.6108 18.2926 18.6108 18.0565ZM22.7989 8.3343H3.78833C3.59055 8.3343 3.42249 8.26522 3.28416 8.12707C3.14583 7.98911 3.07666 7.82143 3.07666 7.62402V7.19013C3.07666 7.0455 3.11286 6.92078 3.18527 6.81596C3.25786 6.71133 3.35342 6.62624 3.47194 6.56069L12.4506 2.16763C12.728 2.03374 13.0217 1.9668 13.3317 1.9668C13.6417 1.9668 13.9363 2.03374 14.2155 2.16763L23.1492 6.53291C23.2888 6.6042 23.397 6.70393 23.4739 6.83207C23.5509 6.96041 23.5894 7.09818 23.5894 7.24541V7.54652C23.5894 7.77393 23.515 7.96207 23.3661 8.11096C23.2172 8.25985 23.0281 8.3343 22.7989 8.3343ZM7.01666 6.66763H19.6494L13.4828 3.67624C13.4328 3.65476 13.3829 3.64402 13.333 3.64402C13.2832 3.64402 13.2333 3.65476 13.1833 3.67624L7.01666 6.66763Z" fill="#3B3941"/>
</g>
</svg>
