<svg width="24" height="24" viewBox="0 0 24 24" fill="none" xmlns="http://www.w3.org/2000/svg">
<path d="M2.22192 1.11133H16.7897C18.7522 1.11133 19.7324 1.11133 20.3422 1.72109C20.9519 2.33086 20.9519 3.31106 20.9519 5.27355V11.5169C20.9519 13.4794 20.9519 14.4596 20.3422 15.0693C19.7324 15.6791 18.7522 15.6791 16.7897 15.6791H9.50581M10.5464 5.79383H16.7897M2.22192 16.7197V12.5574C2.22192 11.5762 2.22192 11.0861 2.52681 10.7812C2.83169 10.4763 3.32179 10.4763 4.30303 10.4763H6.38415M2.22192 16.7197H6.38415M2.22192 16.7197V21.9224M6.38415 10.4763V16.7197M6.38415 10.4763H12.6275M6.38415 16.7197V21.9224" stroke="#3B3941" stroke-width="1.56083" stroke-linecap="round" stroke-linejoin="round"/>
<path d="M6.38415 5.794C6.38415 6.34595 6.16489 6.87529 5.7746 7.26557C5.38432 7.65585 4.85498 7.87511 4.30303 7.87511C3.75109 7.87511 3.22175 7.65585 2.83147 7.26557C2.44118 6.87529 2.22192 6.34595 2.22192 5.794C2.22192 5.24206 2.44118 4.71272 2.83147 4.32243C3.22175 3.93215 3.75109 3.71289 4.30303 3.71289C4.85498 3.71289 5.38432 3.93215 5.7746 4.32243C6.16489 4.71272 6.38415 5.24206 6.38415 5.794Z" stroke="#3B3941" stroke-width="1.56083" stroke-linecap="round" stroke-linejoin="round"/>
</svg>
